<?xml version="1.0" encoding="UTF-8" standalone="no"?>
<!-- Created with Inkscape (http://www.inkscape.org/) -->

<svg
   width="210mm"
   height="297mm"
   viewBox="0 0 210 297"
   version="1.1"
   id="svg5"
   inkscape:version="1.1.2 (b8e25be833, 2022-02-05)"
   sodipodi:docname="dibujo.svg"
   xmlns:inkscape="http://www.inkscape.org/namespaces/inkscape"
   xmlns:sodipodi="http://sodipodi.sourceforge.net/DTD/sodipodi-0.dtd"
   xmlns="http://www.w3.org/2000/svg"
   xmlns:svg="http://www.w3.org/2000/svg">
  <sodipodi:namedview
     id="namedview7"
     pagecolor="#ffffff"
     bordercolor="#666666"
     borderopacity="1.0"
     inkscape:pageshadow="2"
     inkscape:pageopacity="0.0"
     inkscape:pagecheckerboard="0"
     inkscape:document-units="mm"
     showgrid="false"
     inkscape:zoom="1.2810466"
     inkscape:cx="283.36206"
     inkscape:cy="485.1502"
     inkscape:window-width="2560"
     inkscape:window-height="1373"
     inkscape:window-x="-9"
     inkscape:window-y="-9"
     inkscape:window-maximized="1"
     inkscape:current-layer="layer1" />
  <defs
     id="defs2">
    <inkscape:path-effect
       effect="bspline"
       id="path-effect2533"
       is_visible="true"
       lpeversion="1"
       weight="33.333333"
       steps="2"
       helper_size="0"
       apply_no_weight="true"
       apply_with_weight="true"
       only_selected="false" />
    <inkscape:path-effect
       effect="bspline"
       id="path-effect2529"
       is_visible="true"
       lpeversion="1"
       weight="33.333333"
       steps="2"
       helper_size="0"
       apply_no_weight="true"
       apply_with_weight="true"
       only_selected="false" />
    <inkscape:path-effect
       effect="bspline"
       id="path-effect1817"
       is_visible="true"
       lpeversion="1"
       weight="33.333333"
       steps="2"
       helper_size="0"
       apply_no_weight="true"
       apply_with_weight="true"
       only_selected="false" />
    <inkscape:path-effect
       effect="bspline"
       id="path-effect1813"
       is_visible="true"
       lpeversion="1"
       weight="33.333333"
       steps="2"
       helper_size="0"
       apply_no_weight="true"
       apply_with_weight="true"
       only_selected="false" />
    <inkscape:path-effect
       effect="bspline"
       id="path-effect1084"
       is_visible="true"
       lpeversion="1"
       weight="33.333333"
       steps="2"
       helper_size="0"
       apply_no_weight="true"
       apply_with_weight="true"
       only_selected="false" />
    <inkscape:path-effect
       effect="bspline"
       id="path-effect886"
       is_visible="true"
       lpeversion="1"
       weight="33.333333"
       steps="2"
       helper_size="0"
       apply_no_weight="true"
       apply_with_weight="true"
       only_selected="false" />
    <inkscape:path-effect
       effect="bspline"
       id="path-effect882"
       is_visible="true"
       lpeversion="1"
       weight="33.333333"
       steps="2"
       helper_size="0"
       apply_no_weight="true"
       apply_with_weight="true"
       only_selected="false" />
  </defs>
  <g
     inkscape:label="Capa 1"
     inkscape:groupmode="layer"
     id="layer1">
    <path
       style="fill:#273567;fill-opacity:1;stroke:#000000;stroke-width:0.264583px;stroke-linecap:butt;stroke-linejoin:miter;stroke-opacity:1"
       d="m 53.080166,122.88943 c 0.06895,-1.17032 -2.960253,-1.72109 -4.681538,-4.61254 -1.721285,-2.89146 -2.13435,-8.12362 -1.44586,-11.35954 0.68849,-3.23591 2.478443,-4.47511 1.996577,-4.88818 -0.481865,-0.41306 -3.235634,0 -5.438849,2.47858 -2.203214,2.47858 -3.855476,7.0223 -3.786446,10.12042 0.06903,3.09813 1.858979,4.75039 3.304683,5.36984 1.445703,0.61945 2.547213,0.20639 2.065231,0.68833 -0.481983,0.48194 -2.547313,1.85882 -5.025663,1.5147 -2.478349,-0.34412 -5.36981,-2.40945 -7.779514,-5.92057 -2.409703,-3.51113 -4.337343,-8.46791 -3.717783,-13.28728 0.61956,-4.819374 3.786396,-9.500781 6.953445,-12.185819 3.16705,-2.685037 6.333884,-3.373479 6.127368,-4.819142 -0.206515,-1.445663 -3.786418,-3.648679 -7.435401,-3.44223 -3.648983,0.206449 -7.366572,2.82253 -6.67811,0.481752 0.688462,-2.340779 5.782936,-9.638268 9.363088,-13.218256 3.580152,-3.579988 5.645479,-3.4423 7.435473,-3.373463 1.789993,0.06884 3.304566,0.06884 3.029172,-0.826053 -0.275395,-0.894888 -2.340723,-2.684839 -2.960489,-5.232189 -0.619767,-2.54735 0.206364,-5.851873 2.547318,-7.366557 2.340954,-1.514685 6.196231,-1.239308 10.740113,-0.206561 4.543881,1.032747 9.776043,2.822697 15.559118,3.855335 5.783074,1.032639 12.116744,1.308016 16.72941,1.307996 4.612667,-2e-5 7.504125,-0.275397 8.33028,-0.963729 0.826156,-0.688331 -0.41304,-1.789839 -1.927701,-3.717515 -1.514661,-1.927676 -3.304611,-4.681445 -3.167015,-7.43543 0.137596,-2.753984 2.202923,-5.507754 4.888107,-5.851886 2.68518,-0.344131 5.98971,1.721194 7.64185,4.130855 1.65214,2.40966 1.65214,5.16343 1.65214,7.5042 0,2.34077 0,4.268409 1.03279,4.956704 1.0328,0.688294 3.09813,0.137539 6.95352,-1.170551 3.85539,-1.308091 9.50062,-3.373419 14.11338,-2.891321 4.61276,0.482098 8.19266,3.511244 10.53332,7.091294 2.34067,3.58005 3.44217,7.710703 8.67465,10.877505 5.23247,3.166801 14.59529,5.369816 21.27335,7.641799 6.67807,2.271984 10.67104,4.61269 12.392,8.468124 1.72097,3.855433 1.17022,9.225285 -1.51468,12.185521 -2.6849,2.960237 -7.504,3.510987 -9.63823,4.268467 -2.13423,0.75749 -1.58348,1.72131 -0.27535,3.23591 1.30812,1.5146 3.37345,3.57992 3.92405,6.81568 0.55061,3.23575 -0.41321,7.64178 -2.82267,9.4317 -2.40947,1.78991 -6.26475,0.96377 -8.53677,-0.68842 -2.27201,-1.65219 -2.96046,-4.13059 -1.85889,-1.23899 1.10157,2.8916 3.99303,11.15291 2.13407,18.93239 -1.85896,7.77948 -8.468,15.07696 -14.59525,19.89615 -6.12724,4.81918 -11.77247,7.15988 -13.14945,1.85877 -1.37697,-5.30111 1.51443,-18.24358 -1.44581,-26.16103 -2.96024,-7.91745 -11.77213,-10.80885 -19.48305,-11.4974 -7.71092,-0.68854 -14.31984,0.826 -20.389866,3.36188 -6.070024,2.53587 -11.600317,6.09278 -13.941138,14.8365 -2.340821,8.74373 -1.491832,22.67323 0.103201,30.67077 1.595033,7.99755 3.935738,10.06288 1.388383,10.54469 -2.547355,0.4818 -9.982534,-0.61971 -16.936007,-3.71772 -6.953474,-3.09801 -13.424835,-8.19248 -15.421497,-12.52988 -1.996663,-4.3374 0.481731,-7.9173 0.619564,-9.84499 0.137834,-1.92768 -2.065181,-2.20306 -4.061894,-0.61955 -1.996712,1.58352 -3.786666,5.02573 -6.471577,3.02924 -2.684912,-1.99649 -6.264813,-9.43167 -5.300988,-15.62799 0.963825,-6.19632 6.471363,-11.1531 10.808705,-14.52657 4.337343,-3.37347 7.504177,-5.16342 7.57313,-6.33375 z"
       id="path1815"
       inkscape:path-effect="#path-effect1817"
       inkscape:original-d="m 56.178023,122.26982 c -3.028942,-0.5505 -6.058148,-1.10127 -9.08762,-1.6523 -0.412818,-5.23211 -0.825883,-10.46427 -1.239221,-15.6968 1.790285,-1.23898 3.580236,-2.47818 5.369957,-3.71766 -2.753614,0.41335 -5.507384,0.82641 -8.261474,1.23922 -1.652064,4.54417 -3.304326,9.08789 -4.956884,13.63143 1.790287,1.6526 3.580236,3.30486 5.369959,4.95689 1.101815,-0.41282 2.203323,-0.82589 3.304588,-1.23922 -2.065144,1.3772 -4.130471,2.75409 -6.196105,4.13073 -2.891308,-2.06514 -5.782768,-4.13047 -8.674547,-6.1961 -1.927453,-4.95672 -3.85509,-9.91351 -5.783033,-14.87066 3.167227,-4.681327 6.334062,-9.362735 9.500696,-14.044502 3.167227,-0.688206 6.334061,-1.376649 9.500695,-2.06537 -3.579778,-2.202838 -7.15968,-4.405855 -10.739916,-6.609178 -3.717473,2.616449 -7.435062,5.232531 -11.15299,7.848399 5.094942,-7.297516 10.189416,-14.595005 15.283727,-21.892905 2.065675,0.137959 4.131002,0.275647 6.196106,0.413074 1.514899,2.64e-4 3.029472,2.64e-4 4.543811,0 -2.065145,-1.789757 -4.130473,-3.579708 -6.196106,-5.369958 0.826429,-3.304392 1.65256,-6.608915 2.478442,-9.91377 3.855697,0.275653 7.710974,0.55103 11.566064,0.826148 5.232637,1.790286 10.464799,3.580237 15.696802,5.369958 6.334188,0.275653 12.667858,0.55103 19.00139,0.826148 2.891839,-0.275124 5.783297,-0.550501 8.674546,-0.826148 -1.238979,-1.101287 -2.478175,-2.202795 -3.717661,-3.30459 -1.789757,-2.753615 -3.579708,-5.507384 -5.369958,-8.261474 2.065674,-2.753615 4.131001,-5.507385 6.196105,-8.261474 3.304924,2.065674 6.609444,4.131002 9.913774,6.196106 2.6e-4,2.754144 2.6e-4,5.507914 0,8.261474 2.6e-4,1.92798 2.6e-4,3.855619 0,5.783032 2.06567,-0.550511 4.131,-1.101265 6.1961,-1.652295 5.64572,-2.065145 11.29095,-4.130473 16.93602,-6.196106 3.58031,3.029533 7.16021,6.058679 10.73992,9.087622 1.10182,4.131084 2.20332,8.261739 3.30459,12.392211 9.36346,2.203369 18.72627,4.406385 28.08901,6.60918 3.99339,2.341062 7.98636,4.681767 11.97914,7.022253 -0.55051,5.37033 -1.10127,10.740181 -1.65229,16.109875 -4.81903,0.55104 -9.63813,1.10179 -14.45758,1.65229 0.55104,0.96413 1.10179,1.92795 1.65229,2.89152 2.06567,2.06568 4.131,4.131 6.19611,6.19611 -0.9636,4.40647 -1.92742,8.8125 -2.89152,13.21836 -3.85517,-0.8259 -7.71045,-1.65204 -11.56606,-2.47845 -0.68821,-2.47822 -1.37665,-4.95662 -2.06537,-7.43532 2.89184,8.2619 5.78329,16.52321 8.67455,24.78442 -6.60905,7.29805 -13.2181,14.59553 -19.82754,21.89291 -5.64519,2.34106 -11.29042,4.68176 -16.93603,7.02225 2.89184,-12.94296 5.78324,-25.88543 8.67455,-38.82893 -8.81215,-2.89131 -17.62404,-5.78271 -26.43672,-8.67455 -6.60904,1.5149 -13.21796,3.02944 -19.827533,4.54381 -5.53035,3.55738 -11.060642,7.11429 -16.59152,10.67114 0.849285,13.93027 1.698275,27.85977 2.547013,41.78922 2.341063,2.06568 4.681767,4.13101 7.022254,6.19611 -7.435211,-1.10129 -14.87039,-2.2028 -22.305981,-3.30459 -6.471353,-5.09441 -12.942712,-10.18889 -19.414465,-15.28373 2.478757,-3.57978 4.95715,-7.15968 7.435327,-10.73991 -2.202839,-0.27513 -4.405855,-0.5505 -6.609179,-0.82615 -1.789757,3.44261 -3.579708,6.88483 -5.369958,10.32684 -3.57978,-7.43521 -7.15968,-14.87039 -10.739917,-22.30598 5.508024,-4.95672 11.015564,-9.9135 16.522949,-14.87065 3.167225,-1.78976 6.33406,-3.57971 9.500693,-5.36996 z"
       sodipodi:nodetypes="cccccccccccccccccccccccccccccccccccccccccccccccccccccccccccc" />
    <path
       style="fill:#e2d2dc;fill-opacity:1;stroke:#000000;stroke-width:0.264583px;stroke-linecap:butt;stroke-linejoin:miter;stroke-opacity:1"
       d="m 60.721801,103.54397 c -2.478429,8.12386 -3.304576,17.34917 -2.822578,24.7846 0.481998,7.43542 2.271946,13.08064 10.464816,16.66049 8.192871,3.57984 22.787847,5.09442 36.075051,1.65202 13.28721,-3.4424 25.26611,-11.8414 30.91143,-20.10279 5.64531,-8.2614 4.95687,-16.38502 2.27195,-23.26963 -2.68492,-6.884621 -7.36632,-12.529845 -13.42477,-16.316477 -6.05845,-3.786633 -13.49363,-5.714273 -19.48338,-4.956992 -5.989752,0.757281 -10.533473,4.199494 -13.218349,5.507699 -2.684875,1.308206 -3.511007,0.482074 -6.54024,-0.894931 -3.029232,-1.377004 -8.261394,-3.304643 -12.94312,-0.757303 -4.681727,2.547339 -8.812381,9.569451 -11.29081,17.693314 z"
       id="path1811"
       inkscape:path-effect="#path-effect1813"
       inkscape:original-d="m 59.069541,102.44228 c -0.825884,9.22558 -1.652032,18.45089 -2.478442,27.67594 1.790284,5.64572 3.580236,11.29094 5.369957,16.93602 14.595829,1.5149 29.190806,3.02947 43.785814,4.54381 11.97964,-8.39907 23.95854,-16.79807 35.93741,-25.19749 -0.6882,-8.12369 -1.37664,-16.24731 -2.06537,-24.37135 -4.68133,-5.645194 -9.36273,-11.29042 -14.0445,-16.936025 -7.43521,-1.927453 -14.87039,-3.855091 -22.30598,-5.783033 -4.54364,3.442613 -9.087361,6.884826 -13.631434,10.326844 -0.8259,-0.8259 -1.652032,-1.652032 -2.478442,-2.478442 -5.232109,-1.927453 -10.464271,-3.855091 -15.696803,-5.783033 -4.130553,7.022659 -8.26121,14.044769 -12.39221,21.066759 z" />
    <path
       style="fill:#000000;fill-opacity:1;stroke:#000000;stroke-width:0.264583px;stroke-linecap:butt;stroke-linejoin:miter;stroke-opacity:1"
       d="m 68.157251,120.13585 c 0.413208,1.72119 1.652428,3.37348 3.235818,3.57984 1.583391,0.20635 3.511032,-1.03284 5.163279,-3.167 1.652246,-2.13417 3.029132,-5.16331 3.09811,-7.43515 0.06898,-2.27184 -1.170217,-3.78641 -3.235717,-3.37347 -2.0655,0.41294 -4.956962,2.75365 -6.609297,4.81914 -1.652335,2.0655 -2.0654,3.85545 -1.652193,5.57664 z"
       id="path880"
       inkscape:path-effect="#path-effect882"
       inkscape:original-d="m 67.331015,120.20445 c 1.239486,1.65256 2.478707,3.30485 3.717663,4.95688 1.927979,-1.23898 3.855619,-2.47818 5.783032,-3.71766 1.377204,-3.029 2.754088,-6.05815 4.130736,-9.08762 -1.23898,-1.51437 -2.478177,-3.02894 -3.717663,-4.54381 -2.891308,2.34106 -5.782768,4.68177 -8.674547,7.02225 -0.412819,1.79029 -0.825884,3.58024 -1.239221,5.36996 z" />
    <path
       style="fill:#000000;fill-opacity:1;stroke:#000000;stroke-width:0.264583px;stroke-linecap:butt;stroke-linejoin:miter;stroke-opacity:1"
       d="m 99.137811,114.76561 c -0.413151,-0.34423 1.239109,-1.58342 3.442309,-2.34074 2.2032,-0.75731 4.95691,-1.03268 7.09121,-0.82605 2.1343,0.20662 3.64885,0.89505 5.09447,0.48191 1.44561,-0.41315 2.82248,-1.9277 4.26831,-3.16697 1.44582,-1.23927 2.96037,-2.20307 3.99307,-1.51443 1.03271,0.68865 1.58345,3.0293 0.34428,4.40607 -1.23917,1.37677 -4.26827,1.78983 -5.78301,2.2719 -1.51474,0.48208 -1.51474,1.03283 -2.4096,1.17041 -0.89487,0.13759 -2.68478,-0.13778 -4.61249,-0.41318 -1.92772,-0.27539 -3.993,-0.55076 -6.265,-0.41311 -2.27201,0.13765 -4.750397,0.68841 -5.163549,0.34419 z"
       id="path884"
       inkscape:path-effect="#path-effect886"
       inkscape:original-d="m 97.072323,115.66064 c 1.652559,-1.23896 3.304817,-2.47816 4.956877,-3.71767 2.75415,-0.27512 5.50786,-0.55049 8.26148,-0.82614 1.5149,0.68873 3.02945,1.37716 4.54381,2.06536 1.3772,-1.51436 2.75407,-3.02891 4.13074,-4.5438 1.5149,-0.96359 3.02944,-1.9274 4.54381,-2.89152 0.55104,2.34106 1.10178,4.68172 1.65229,7.02225 -3.029,0.41335 -6.0581,0.8264 -9.08762,1.23922 2.7e-4,0.55104 2.7e-4,1.10179 0,1.6523 -1.78976,-0.27512 -3.57967,-0.5505 -5.36996,-0.82615 -2.06514,-0.27512 -4.13042,-0.5505 -6.1961,-0.82615 -2.47823,0.55104 -4.956618,1.1018 -7.435327,1.6523 z"
       sodipodi:nodetypes="cccccccccccc" />
    <path
       style="fill:#e1a6cc;fill-opacity:1;stroke:#b93939;stroke-width:0.264583px;stroke-linecap:butt;stroke-linejoin:miter;stroke-opacity:1"
       d="m 82.461581,133.36804 c -2.018748,-1.11182 -0.983508,-1.20076 -0.465977,-1.24522 0.517531,-0.0445 0.517531,-0.0445 1.035191,-0.40025 0.517659,-0.35579 1.552858,-1.06729 3.8305,-1.6454 2.277642,-0.57812 5.797339,-1.02281 8.799621,-1.02278 3.002283,3e-5 5.486814,0.44473 8.592534,-0.13345 3.10571,-0.57817 6.83251,-2.17908 9.00654,-3.06849 2.17404,-0.8894 2.79517,-1.06728 2.2257,-0.0889 -0.56948,0.9784 -2.32932,3.11289 -6.00446,5.46985 -3.67513,2.35695 -9.26523,4.93614 -14.59677,5.15857 -5.331538,0.22242 -10.404131,-1.91212 -12.422879,-3.02394 z"
       id="path1082"
       inkscape:path-effect="#path-effect1084"
       inkscape:original-d="m 79.407404,132.34518 c 1.035442,-0.0888 2.070686,-0.1777 3.105731,-0.26682 1.99e-4,1.7e-4 1.99e-4,1.7e-4 0,0 1.035463,-0.71137 2.070666,-1.42286 3.10573,-2.13458 3.520097,-0.44454 7.039794,-0.88922 10.559486,-1.33411 2.484825,0.44488 4.969359,0.88958 7.453749,1.33411 3.72715,-1.6008 7.45395,-3.2017 11.18063,-4.80281 0.62136,-0.17771 1.24249,-0.35559 1.86344,-0.53364 -1.75975,2.1348 -3.5196,4.26929 -5.27975,6.40374 -5.59022,2.57951 -11.18032,5.1587 -16.770937,7.73786 -5.072594,-2.13445 -10.145187,-4.26899 -15.218079,-6.40375 z"
       sodipodi:nodetypes="ccccccccccc" />
    <path
       style="fill:#273567;stroke:#273567;stroke-width:0.264583px;stroke-linecap:butt;stroke-linejoin:miter;stroke-opacity:1;fill-opacity:1"
       d="m 71.978119,103.95694 c -0.79165,0.0687 -2.61606,1.03258 -4.268438,2.59889 -1.652377,1.56631 -3.132526,3.73491 -3.820944,5.21521 -0.688418,1.48031 -0.585151,2.27202 0.03443,1.73834 0.619579,-0.53368 1.755511,-2.39248 3.23576,-3.94157 1.480249,-1.5491 3.304623,-2.7883 4.337256,-3.82088 1.032632,-1.03259 1.273587,-1.85872 0.481938,-1.78999 z"
       id="path2527"
       inkscape:path-effect="#path-effect2529"
       inkscape:original-d="m 73.010778,103.06189 c -1.824144,0.9641 -3.648554,1.92794 -5.473227,2.89152 -1.479946,2.16894 -2.960097,4.33753 -4.440541,6.50591 0.103534,0.792 0.206801,1.58371 0.309806,2.37517 1.136239,-1.8586 2.272167,-3.7174 3.407857,-5.57649 1.824709,-1.23898 3.649083,-2.47818 5.473226,-3.71767 0.241229,-0.8259 0.482185,-1.65203 0.722879,-2.47844 z" />
    <path
       style="fill:#273567;stroke:#273567;stroke-width:0.264583px;stroke-linecap:butt;stroke-linejoin:miter;stroke-opacity:1;fill-opacity:1"
       d="m 104.62826,100.4116 c 0.43042,0.48192 1.29099,1.30806 3.11544,1.91035 1.82445,0.6023 4.61264,0.98094 6.29938,1.29079 1.68674,0.30986 2.27191,0.55081 2.59876,0.25826 0.32685,-0.29254 0.39569,-1.11867 -0.51637,-1.65233 -0.91207,-0.53366 -2.80529,-0.77461 -4.61249,-1.22207 -1.8072,-0.44747 -3.52831,-1.101485 -4.73317,-1.359737 -1.20486,-0.258252 -1.89331,-0.120562 -2.23764,0.01728 -0.34433,0.137845 -0.34433,0.275534 0.0861,0.757455 z"
       id="path2531"
       inkscape:path-effect="#path-effect2533"
       inkscape:original-d="m 104.19784,100.06711 c 0.86084,0.82641 1.72141,1.65255 2.58171,2.47844 2.78857,0.37892 5.57676,0.75756 8.36475,1.13595 0.58546,0.24123 1.17064,0.48218 1.75556,0.72288 0.0691,-0.8259 0.13795,-1.65203 0.20654,-2.47844 -1.89303,-0.2407 -3.78625,-0.48166 -5.67977,-0.72288 -1.72091,-0.65378 -3.44201,-1.307803 -5.16342,-1.962102 -0.6882,0.137959 -1.37665,0.275648 -2.06537,0.413075 2.7e-4,0.137957 2.7e-4,0.275646 0,0.413077 z" />
  </g>
</svg>
